<svg xmlns="http://www.w3.org/2000/svg" width="32" height="32" viewBox="0 0 32 32"><path fill-rule="evenodd" clip-rule="evenodd" fill="#fff" d="M12.938 7.063l-.875-3h-5.25l-.813 3V24h24V7.063H12.938zm11.11 6.173l.003.002-4.124 2.313-.354-.353-.334.334 1.03 1.03-.708.707-1.03-1.03-3.935 3.937.56.56-2.434 2.432-1.823-1.825 2.433-2.43.56.558 3.935-3.936-1.092-1.092.707-.707 1.092 1.092.334-.334-.354-.353 2.027-3.49c.286-.955 1.162-1.654 2.21-1.654 1.28 0 2.32 1.04 2.32 2.32 0 .8-.405 1.506-1.022 1.923zM5 8H2.813L2 11h3V8zm0 3.063H2V28h25v-2.938H5v-14z"/></svg>